<svg xmlns="http://www.w3.org/2000/svg" width="321.7" height="35" viewBox="0 0 321.7 35"><rect class="svg__rect" x="0" y="0" width="72.67" height="35" fill="#EA4560"/><rect class="svg__rect" x="70.67" y="0" width="251.02999999999997" height="35" fill="#5D9741"/><path class="svg__text" d="M19.57 22L14.22 22L14.22 13.47L15.70 13.47L15.70 20.82L19.57 20.82L19.57 22ZM25.26 22L23.79 22L23.79 13.47L25.26 13.47L25.26 22ZM31.56 22L30.07 22L30.07 13.47L31.56 13.47L35.37 19.54L35.37 13.47L36.84 13.47L36.84 22L35.36 22L31.56 15.95L31.56 22ZM41.45 19.16L41.45 19.16L41.45 13.47L42.92 13.47L42.92 19.18Q42.92 20.03 43.36 20.48Q43.79 20.93 44.63 20.93L44.63 20.93Q46.34 20.93 46.34 19.13L46.34 19.13L46.34 13.47L47.82 13.47L47.82 19.17Q47.82 20.53 46.95 21.32Q46.08 22.12 44.63 22.12L44.63 22.12Q43.17 22.12 42.31 21.33Q41.45 20.55 41.45 19.16ZM53.49 22L51.76 22L54.41 17.70L51.82 13.47L53.53 13.47L55.33 16.55L57.12 13.47L58.83 13.47L56.25 17.70L58.89 22L57.16 22L55.33 18.87L53.49 22Z" fill="#FFFFFF"/><path class="svg__text" d="M87.24 22L84.86 22L84.86 13.60L88.70 13.60Q89.84 13.60 90.68 13.98Q91.52 14.35 91.98 15.06Q92.43 15.76 92.43 16.71L92.43 16.71Q92.43 17.66 91.98 18.35Q91.52 19.05 90.68 19.42Q89.84 19.80 88.70 19.80L88.70 19.80L87.24 19.80L87.24 22ZM87.24 15.47L87.24 17.93L88.56 17.93Q89.29 17.93 89.66 17.61Q90.03 17.29 90.03 16.71L90.03 16.71Q90.03 16.12 89.66 15.80Q89.29 15.47 88.56 15.47L88.56 15.47L87.24 15.47ZM98.60 22L96.18 22L99.89 13.60L102.23 13.60L105.95 22L103.48 22L102.82 20.37L99.27 20.37L98.60 22ZM101.04 15.93L99.96 18.61L102.12 18.61L101.04 15.93ZM109.67 17.80L109.67 17.80Q109.67 16.54 110.27 15.54Q110.87 14.55 111.92 13.99Q112.97 13.43 114.29 13.43L114.29 13.43Q115.44 13.43 116.37 13.84Q117.29 14.25 117.90 15.02L117.90 15.02L116.39 16.39Q115.58 15.40 114.41 15.40L114.41 15.40Q113.73 15.40 113.19 15.70Q112.66 16 112.36 16.54Q112.07 17.09 112.07 17.80L112.07 17.80Q112.07 18.51 112.36 19.05Q112.66 19.60 113.19 19.90Q113.73 20.20 114.41 20.20L114.41 20.20Q115.58 20.20 116.39 19.22L116.39 19.22L117.90 20.58Q117.30 21.35 116.37 21.76Q115.44 22.17 114.29 22.17L114.29 22.17Q112.97 22.17 111.92 21.61Q110.87 21.05 110.27 20.05Q109.67 19.06 109.67 17.80ZM124.80 22L122.44 22L122.44 13.60L124.80 13.60L124.80 17.09L128.05 13.60L130.66 13.60L127.23 17.32L130.84 22L128.08 22L125.68 18.95L124.80 19.90L124.80 22ZM136.37 22L133.94 22L137.65 13.60L139.99 13.60L143.71 22L141.24 22L140.58 20.37L137.03 20.37L136.37 22ZM138.81 15.93L137.72 18.61L139.88 18.61L138.81 15.93ZM147.44 17.80L147.44 17.80Q147.44 16.54 148.03 15.54Q148.63 14.55 149.70 13.99Q150.77 13.43 152.11 13.43L152.11 13.43Q153.29 13.43 154.23 13.83Q155.16 14.22 155.79 14.97L155.79 14.97L154.27 16.33Q153.43 15.40 152.25 15.40L152.25 15.40Q152.24 15.40 152.23 15.40L152.23 15.40Q151.16 15.40 150.49 16.06Q149.83 16.71 149.83 17.80L149.83 17.80Q149.83 18.50 150.13 19.04Q150.44 19.59 150.98 19.89Q151.51 20.20 152.21 20.20L152.21 20.20Q152.90 20.20 153.49 19.93L153.49 19.93L153.49 17.62L155.59 17.62L155.59 21.10Q154.87 21.61 153.94 21.89Q153.00 22.17 152.06 22.17L152.06 22.17Q150.75 22.17 149.69 21.61Q148.63 21.05 148.03 20.05Q147.44 19.06 147.44 17.80ZM167.33 22L160.58 22L160.58 13.60L167.18 13.60L167.18 15.44L162.94 15.44L162.94 16.85L166.67 16.85L166.67 18.63L162.94 18.63L162.94 20.17L167.33 20.17L167.33 22ZM181.48 22L179.11 22L179.11 13.60L181.48 13.60L181.48 22ZM188.99 22L186.66 22L186.66 13.60L188.62 13.60L192.32 18.07L192.32 13.60L194.65 13.60L194.65 22L192.70 22L188.99 17.52L188.99 22ZM199.23 21.24L199.23 21.24L200.01 19.49Q200.57 19.86 201.31 20.09Q202.06 20.32 202.78 20.32L202.78 20.32Q204.14 20.32 204.15 19.64L204.15 19.64Q204.15 19.28 203.76 19.11Q203.37 18.93 202.50 18.74L202.50 18.74Q201.55 18.53 200.92 18.30Q200.28 18.06 199.83 17.55Q199.37 17.03 199.37 16.16L199.37 16.16Q199.37 15.39 199.79 14.77Q200.21 14.15 201.05 13.79Q201.88 13.43 203.09 13.43L203.09 13.43Q203.91 13.43 204.72 13.62Q205.53 13.80 206.14 14.17L206.14 14.17L205.41 15.93Q204.21 15.28 203.08 15.28L203.08 15.28Q202.37 15.28 202.05 15.49Q201.72 15.70 201.72 16.04L201.72 16.04Q201.72 16.37 202.11 16.54Q202.49 16.71 203.34 16.89L203.34 16.89Q204.30 17.10 204.93 17.33Q205.56 17.56 206.02 18.07Q206.49 18.58 206.49 19.46L206.49 19.46Q206.49 20.21 206.07 20.83Q205.65 21.44 204.81 21.80Q203.97 22.17 202.77 22.17L202.77 22.17Q201.75 22.17 200.79 21.92Q199.82 21.67 199.23 21.24ZM212.86 15.48L210.27 15.48L210.27 13.60L217.80 13.60L217.80 15.48L215.23 15.48L215.23 22L212.86 22L212.86 15.48ZM223.58 22L221.16 22L224.87 13.60L227.21 13.60L230.93 22L228.46 22L227.80 20.37L224.25 20.37L223.58 22ZM226.02 15.93L224.94 18.61L227.10 18.61L226.02 15.93ZM241.47 22L235.08 22L235.08 13.60L237.46 13.60L237.46 20.11L241.47 20.11L241.47 22ZM252.27 22L245.89 22L245.89 13.60L248.26 13.60L248.26 20.11L252.27 20.11L252.27 22ZM258.11 22L255.68 22L259.39 13.60L261.73 13.60L265.45 22L262.98 22L262.32 20.37L258.77 20.37L258.11 22ZM260.55 15.93L259.46 18.61L261.62 18.61L260.55 15.93ZM271.40 15.48L268.81 15.48L268.81 13.60L276.34 13.60L276.34 15.48L273.77 15.48L273.77 22L271.40 22L271.40 15.48ZM283.09 22L280.71 22L280.71 13.60L283.09 13.60L283.09 22ZM287.83 17.80L287.83 17.80Q287.83 16.55 288.44 15.55Q289.04 14.56 290.10 14.00Q291.17 13.43 292.50 13.43L292.50 13.43Q293.83 13.43 294.89 14.00Q295.95 14.56 296.56 15.55Q297.17 16.55 297.17 17.80L297.17 17.80Q297.17 19.05 296.56 20.04Q295.95 21.04 294.89 21.60Q293.83 22.17 292.50 22.17L292.50 22.17Q291.17 22.17 290.10 21.60Q289.04 21.04 288.44 20.04Q287.83 19.05 287.83 17.80ZM290.23 17.80L290.23 17.80Q290.23 18.51 290.53 19.05Q290.83 19.60 291.35 19.90Q291.86 20.20 292.50 20.20L292.50 20.20Q293.14 20.20 293.65 19.90Q294.17 19.60 294.47 19.05Q294.76 18.51 294.76 17.80L294.76 17.80Q294.76 17.09 294.47 16.54Q294.17 16 293.65 15.70Q293.14 15.40 292.50 15.40L292.50 15.40Q291.86 15.40 291.35 15.70Q290.83 16 290.53 16.54Q290.23 17.09 290.23 17.80ZM304.23 22L301.90 22L301.90 13.60L303.85 13.60L307.56 18.07L307.56 13.60L309.89 13.60L309.89 22L307.94 22L304.23 17.52L304.23 22Z" fill="#FFFFFF" x="83.67"/></svg>